<?xml version="1.0" standalone="no"?>
<!DOCTYPE svg PUBLIC "-//W3C//DTD SVG 20010904//EN"
 "http://www.w3.org/TR/2001/REC-SVG-20010904/DTD/svg10.dtd">
<svg version="1.0" xmlns="http://www.w3.org/2000/svg"
 width="180.000000pt" height="180.000000pt" viewBox="0 0 180.000000 180.000000"
 preserveAspectRatio="xMidYMid meet">
<metadata>
Created by potrace 1.10, written by Peter Selinger 2001-2011
</metadata>
<g transform="translate(0.000000,180.000000) scale(0.100000,-0.100000)"
fill="#000000" stroke="none">
<path d="M827 1723 c-44 -3 -57 -7 -54 -18 6 -13 -20 -25 -56 -25 -26 0 -10
20 16 21 12 0 16 3 9 6 -15 6 -166 -42 -195 -62 -28 -19 -10 -19 27 0 16 9 37
13 48 9 12 -3 18 -1 16 8 -4 17 42 23 52 7 6 -9 23 -7 77 9 65 20 175 34 167
21 -2 -4 7 -9 21 -11 16 -4 25 -1 25 8 0 10 14 12 53 9 44 -4 47 -3 17 4 -47
12 -152 18 -223 14z"/>
<path d="M1105 1670 c16 -7 13 -9 -17 -9 -35 -1 -38 -3 -38 -31 0 -24 6 -33
26 -40 14 -6 29 -8 34 -5 4 3 13 -2 20 -10 18 -22 86 -20 95 2 4 12 -1 24 -14
35 -12 9 -21 20 -21 26 0 5 -19 17 -43 26 -44 16 -78 22 -42 6z m45 -47 c16
-9 30 -23 30 -30 0 -14 -12 -17 -24 -6 -3 4 -14 8 -24 9 -56 8 -67 16 -59 38
7 18 35 14 77 -11z"/>
<path d="M1222 1650 c20 -11 44 -33 54 -48 16 -27 55 -61 53 -45 -1 5 -1 14 0
21 1 17 107 -67 114 -90 3 -10 12 -18 21 -18 9 0 16 -7 16 -15 0 -8 4 -15 10
-15 10 0 90 -116 90 -131 0 -5 5 -9 10 -9 6 0 10 -7 10 -15 0 -8 4 -15 8 -15
23 0 66 -132 49 -149 -8 -8 -6 -11 6 -11 16 0 35 -45 24 -56 -3 -3 1 -21 9
-40 10 -24 13 -57 9 -116 -14 -216 -14 -219 -89 -380 -38 -84 -40 -105 -4 -36
80 152 110 270 110 428 0 222 -91 431 -255 587 -70 66 -236 173 -267 173 -8
-1 2 -10 22 -20z"/>
<path d="M514 1554 c-24 -21 -31 -33 -19 -29 11 4 25 8 32 8 7 0 10 4 7 8 -2
4 6 9 18 11 13 2 23 9 23 17 0 27 -21 21 -61 -15z"/>
<path d="M736 1572 c-7 -12 7 -29 31 -36 30 -10 38 10 11 28 -25 18 -35 20
-42 8z"/>
<path d="M1005 1510 c-10 -16 1 -26 52 -45 34 -13 48 -15 51 -6 3 9 7 9 18 0
9 -7 14 -8 14 -1 0 6 3 18 6 26 5 14 2 15 -22 6 -36 -14 -94 -4 -94 15 0 17
-16 20 -25 5z"/>
<path d="M1290 1503 c-14 -2 -32 -6 -40 -9 -25 -9 15 -32 45 -26 17 3 25 0 25
-9 1 -10 3 -9 10 3 10 16 4 49 -9 47 -3 -1 -17 -4 -31 -6z"/>
<path d="M805 1483 c-60 -6 -64 -21 -9 -28 27 -3 57 -10 66 -16 23 -12 58 -12
58 1 0 5 -7 7 -15 4 -8 -4 -15 -1 -15 5 0 6 -7 11 -15 11 -8 0 -15 7 -15 15 0
8 -3 14 -7 13 -5 -1 -26 -3 -48 -5z"/>
<path d="M633 1407 c-29 -13 -30 -47 -3 -70 11 -9 20 -12 20 -7 0 6 7 10 15
10 8 0 15 5 15 11 0 6 -8 8 -19 4 -27 -8 -36 13 -15 36 21 24 16 30 -13 16z"/>
<path d="M362 1388 c5 -15 48 -24 48 -10 0 10 -23 22 -42 22 -5 0 -8 -6 -6
-12z"/>
<path d="M1183 1373 c-7 -15 -12 -28 -10 -29 1 -2 18 5 37 14 25 12 30 18 17
20 -9 2 -17 8 -17 13 0 18 -15 8 -27 -18z"/>
<path d="M1376 1362 c0 -14 7 -28 15 -30 8 -3 11 -1 7 3 -4 5 -3 14 3 21 7 9
5 15 -8 22 -16 9 -18 7 -17 -16z"/>
<path d="M315 1356 c-9 -13 -27 -27 -41 -30 -31 -8 -31 -22 -1 -21 28 0 85 46
79 63 -6 19 -20 14 -37 -12z"/>
<path d="M1472 1328 c8 -11 24 -25 37 -30 20 -7 19 -4 -8 22 -34 35 -50 39
-29 8z"/>
<path d="M934 1305 c4 -14 2 -25 -3 -25 -5 0 -12 -7 -15 -16 -5 -12 -1 -14 17
-8 12 3 24 8 25 10 8 6 -10 64 -20 64 -6 0 -8 -10 -4 -25z"/>
<path d="M860 1305 c-7 -8 -21 -15 -31 -15 -10 0 -21 -4 -24 -10 -3 -5 -1 -10
5 -10 16 0 70 33 70 42 0 12 -6 10 -20 -7z"/>
<path d="M1154 1308 c2 -7 6 -21 9 -30 4 -10 9 -25 12 -34 4 -13 8 -14 19 -5
12 10 11 17 -7 46 -22 35 -37 45 -33 23z"/>
<path d="M236 1268 c-9 -12 -16 -28 -16 -34 0 -7 -6 -14 -12 -17 -7 -2 -10 -8
-6 -11 10 -11 44 27 52 58 8 32 2 33 -18 4z"/>
<path d="M702 1264 c23 -23 29 -25 54 -16 l29 10 -31 1 c-17 1 -37 8 -44 16
-7 8 -17 15 -23 15 -7 0 0 -12 15 -26z"/>
<path d="M982 1272 c-13 -9 -6 -42 8 -42 5 0 17 -3 27 -6 13 -4 12 -1 -6 14
-13 11 -21 24 -17 31 8 13 6 14 -12 3z"/>
<path d="M1495 1259 c-4 -6 1 -16 11 -24 20 -14 30 -4 20 20 -6 18 -22 20 -31
4z"/>
<path d="M1045 1231 c-10 -9 7 -20 22 -14 13 5 15 2 9 -21 l-7 -27 21 21 c11
11 18 26 14 32 -4 6 -3 8 2 5 6 -3 16 -2 24 3 10 6 -1 9 -33 7 -27 -1 -50 -4
-52 -6z"/>
<path d="M633 1223 c-18 -6 -16 -43 1 -43 7 0 16 9 19 20 6 22 -1 30 -20 23z"/>
<path d="M1306 1215 c-19 -14 -19 -15 7 -15 15 0 27 -4 27 -10 0 -5 4 -10 10
-10 11 0 -3 43 -16 47 -5 1 -18 -4 -28 -12z"/>
<path d="M1390 1193 c0 -5 5 -15 10 -23 7 -11 4 -19 -11 -31 -21 -15 -21 -16
10 -11 17 2 29 8 26 12 -3 5 1 10 7 13 10 3 8 10 -6 26 -19 21 -36 28 -36 14z"/>
<path d="M181 1144 c-12 -15 -26 -45 -31 -68 -6 -22 -15 -52 -21 -65 -7 -16
-6 -27 2 -37 10 -12 14 -10 25 11 7 14 11 38 8 54 -4 20 2 38 20 66 38 56 36
88 -3 39z"/>
<path d="M826 1145 c4 -9 15 -15 28 -13 29 4 23 22 -9 26 -19 3 -24 0 -19 -13z"/>
<path d="M290 1123 c1 -27 1 -27 15 -9 19 25 19 36 0 36 -10 0 -15 -10 -15
-27z"/>
<path d="M616 1111 c-8 -12 4 -70 15 -77 5 -3 9 2 9 10 0 26 1 30 12 43 5 7 7
17 3 23 -8 12 -32 13 -39 1z"/>
<path d="M792 1100 c-13 -11 -18 -21 -12 -25 6 -3 13 1 16 9 3 9 18 16 33 16
20 0 23 2 11 10 -20 13 -21 12 -48 -10z"/>
<path d="M238 1084 c-9 -9 -10 -48 -2 -57 11 -11 35 5 25 17 -5 6 -10 19 -12
29 -2 11 -7 15 -11 11z"/>
<path d="M736 1055 c-17 -13 -17 -14 2 -35 l19 -21 6 22 c9 34 -4 51 -27 34z"/>
<path d="M80 902 c0 -60 3 -112 7 -116 4 -4 8 -23 9 -44 5 -81 74 -246 113
-270 18 -10 21 -10 21 4 0 8 5 12 10 9 6 -4 8 -15 5 -24 -3 -10 1 -24 10 -31
13 -11 14 -10 8 5 -5 14 -3 17 8 13 10 -4 15 1 15 13 0 21 -12 26 -18 7 -2 -6
-10 4 -18 23 -8 19 -20 38 -27 42 -7 5 -10 13 -7 19 4 7 2 8 -4 4 -7 -4 -9
-18 -6 -33 10 -40 -12 -19 -27 25 -6 20 -16 43 -21 49 -6 7 -7 24 -4 37 3 13
1 26 -4 28 -6 2 -12 27 -15 56 -2 28 -7 56 -10 62 -10 16 -23 129 -25 213 0 9
-4 17 -10 17 -6 0 -10 -43 -10 -108z"/>
<path d="M880 956 c0 -8 4 -17 8 -20 13 -8 35 11 28 23 -10 16 -36 14 -36 -3z"/>
<path d="M160 941 c0 -5 -3 -17 -7 -27 -4 -11 -3 -15 5 -10 6 3 15 -2 21 -11
17 -31 22 -8 5 25 -16 32 -24 40 -24 23z"/>
<path d="M760 935 c-14 -16 -5 -35 16 -35 15 0 20 35 5 44 -5 3 -14 -1 -21 -9z"/>
<path d="M864 774 c9 -8 16 -21 16 -28 0 -6 9 -12 20 -13 11 -1 18 2 15 8 -4
5 1 9 9 9 9 0 16 9 16 20 0 11 -4 20 -10 20 -5 0 -10 -7 -10 -16 0 -15 -2 -15
-25 0 -31 21 -51 21 -31 0z"/>
<path d="M490 718 c0 -18 37 -44 48 -34 3 3 0 6 -7 6 -9 0 -11 8 -7 23 4 18 1
23 -14 23 -12 0 -20 -7 -20 -18z"/>
<path d="M946 733 c-11 -12 -6 -20 19 -31 24 -11 25 -10 15 8 -12 23 -25 32
-34 23z"/>
<path d="M1016 725 c-18 -19 -13 -37 9 -29 9 4 19 -3 26 -19 6 -14 22 -30 35
-36 24 -11 33 -31 13 -31 -5 0 -7 -5 -4 -11 5 -6 13 -3 22 10 8 12 11 27 7 34
-6 9 -5 9 8 0 15 -13 32 -7 22 9 -3 5 -21 6 -40 2 -29 -5 -35 -3 -44 17 -6 13
-17 34 -24 47 -12 21 -15 22 -30 7z"/>
<path d="M776 623 c-10 -10 -7 -18 12 -40 20 -23 52 -37 52 -23 0 6 -5 10 -11
10 -16 0 -36 23 -32 37 5 13 -11 25 -21 16z"/>
<path d="M897 578 c11 -13 23 -30 26 -38 3 -10 6 -7 6 8 1 25 -20 52 -40 52
-8 0 -4 -9 8 -22z"/>
<path d="M1060 577 c0 -14 -6 -16 -27 -12 -16 3 -21 2 -13 -1 8 -4 19 -13 23
-20 4 -8 15 -14 22 -14 17 0 19 28 5 50 -8 13 -10 12 -10 -3z"/>
<path d="M525 533 c16 -9 35 -22 43 -29 17 -17 23 -18 17 -1 -6 14 -61 47 -78
47 -7 -1 1 -8 18 -17z"/>
<path d="M825 520 c-3 -5 -18 -8 -33 -5 -26 5 -26 5 -3 -5 14 -6 21 -16 18
-24 -3 -8 1 -20 9 -27 12 -10 14 -8 12 11 -2 13 3 25 11 28 10 3 11 -3 6 -28
-5 -23 -4 -30 4 -26 6 4 11 18 11 31 0 13 6 25 13 28 15 5 9 12 -20 21 -12 4
-24 2 -28 -4z"/>
<path d="M940 489 c0 -18 69 -32 91 -18 8 5 12 9 9 10 -3 0 -14 2 -25 4 -11 2
-32 6 -47 9 -16 3 -28 1 -28 -5z"/>
<path d="M320 440 c6 -11 15 -20 20 -20 6 0 10 -8 11 -17 0 -11 3 -13 6 -5 2
6 9 10 14 6 5 -3 9 1 9 8 0 7 -16 21 -36 30 -34 18 -34 18 -24 -2z"/>
<path d="M780 431 c0 -6 9 -11 20 -11 24 0 26 -22 5 -40 -14 -11 -14 -15 -1
-29 8 -9 15 -19 15 -23 1 -5 3 -8 6 -8 2 -1 17 -7 32 -15 14 -8 31 -11 37 -7
6 4 -1 8 -16 10 -19 2 -28 9 -28 22 0 10 -8 21 -17 24 -10 4 -13 10 -8 14 9 6
35 47 35 55 0 1 -8 3 -17 4 -10 1 -28 4 -40 8 -15 5 -23 3 -23 -4z"/>
<path d="M1008 434 c-3 -5 1 -22 8 -39 7 -16 13 -23 14 -15 0 13 1 13 10 0 13
-21 22 -7 14 24 -3 14 -11 23 -16 20 -6 -4 -14 -1 -18 6 -4 7 -10 8 -12 4z"/>
<path d="M880 414 c0 -21 24 -22 59 -3 l34 18 -46 -2 c-27 -1 -47 -7 -47 -13z"/>
<path d="M1470 325 c-52 -52 -98 -95 -103 -95 -5 0 -32 -15 -60 -34 -103 -68
-281 -109 -443 -103 -108 4 -124 9 -124 35 -1 16 -2 16 -14 0 -7 -10 -18 -18
-25 -18 -11 0 -67 23 -151 63 -25 12 -48 22 -51 22 -17 1 -64 52 -61 68 2 9
-1 17 -7 17 -6 0 -11 -5 -11 -11 0 -6 -13 -1 -29 10 -16 12 -33 21 -38 21 -8
0 -20 14 -62 70 -11 14 -23 22 -27 17 -13 -12 95 -114 181 -172 97 -64 154
-90 250 -115 272 -70 562 5 766 198 60 56 118 122 107 122 -2 0 -46 -43 -98
-95z"/>
<path d="M658 350 c12 -12 22 -25 22 -30 0 -6 7 -10 15 -10 8 0 15 5 15 10 0
6 -7 10 -16 10 -10 0 -14 5 -10 16 3 8 2 12 -4 9 -6 -3 -10 -1 -10 4 0 6 -8
11 -17 11 -14 0 -13 -3 5 -20z"/>
<path d="M452 345 c-7 -8 -8 -15 -3 -15 5 0 13 5 16 10 3 6 17 7 31 4 14 -4
24 -2 24 5 0 16 -53 13 -68 -4z"/>
<path d="M592 318 c5 -15 58 -24 58 -10 0 11 -24 22 -47 22 -8 0 -13 -6 -11
-12z"/>
<path d="M460 290 c0 -14 30 -40 46 -40 29 0 10 29 -28 43 -10 4 -18 2 -18 -3z"/>
<path d="M975 281 c-21 -5 -25 -8 -14 -13 19 -7 67 1 75 13 6 10 -16 10 -61 0z"/>
<path d="M1211 245 c-40 -14 -27 -28 15 -15 16 4 25 9 19 9 -5 1 -3 6 5 11 20
13 4 11 -39 -5z"/>
</g>
</svg>
